<?xml version="1.0" encoding="UTF-8" standalone="no"?><svg xmlns="http://www.w3.org/2000/svg" xmlns:xlink="http://www.w3.org/1999/xlink" contentStyleType="text/css" height="627px" preserveAspectRatio="none" style="width:1190px;height:627px;background:#FFFFFF;" version="1.1" viewBox="0 0 1190 627" width="1190px" zoomAndPan="magnify"><defs/><g><!--MD5=[40834159c3fe7f9127f0c64e676fe04e]
cluster com.example.practica1--><g id="cluster_com.example.practica1"><path d="M95.5,130 L256.5,130 A3.75,3.75 0 0 1 259,132.5 L266,153.6094 L1180.5,153.6094 A2.5,2.5 0 0 1 1183,156.1094 L1183,617.5 A2.5,2.5 0 0 1 1180.5,620 L95.5,620 A2.5,2.5 0 0 1 93,617.5 L93,132.5 A2.5,2.5 0 0 1 95.5,130 " fill="none" style="stroke:#000000;stroke-width:1.5;"/><line style="stroke:#000000;stroke-width:1.5;" x1="93" x2="266" y1="153.6094" y2="153.6094"/><text fill="#000000" font-family="sans-serif" font-size="14" font-weight="bold" lengthAdjust="spacing" textLength="160" x="97" y="146.5332">com.example.practica1</text></g><!--MD5=[5e20bc0e8ca627073f711c0c02e6872f]
cluster android.hardware--><g id="cluster_android.hardware"><path d="M8.5,6 L133.5,6 A3.75,3.75 0 0 1 136,8.5 L143,29.6094 L199.5,29.6094 A2.5,2.5 0 0 1 202,32.1094 L202,103.5 A2.5,2.5 0 0 1 199.5,106 L8.5,106 A2.5,2.5 0 0 1 6,103.5 L6,8.5 A2.5,2.5 0 0 1 8.5,6 " fill="none" style="stroke:#000000;stroke-width:1.5;"/><line style="stroke:#000000;stroke-width:1.5;" x1="6" x2="143" y1="29.6094" y2="29.6094"/><text fill="#000000" font-family="sans-serif" font-size="14" font-weight="bold" lengthAdjust="spacing" textLength="124" x="10" y="22.5332">android.hardware</text></g><!--MD5=[5a11439e6a9c928fb0d5ec822813d7c6]
cluster androidx.appcompat.app--><g id="cluster_androidx.appcompat.app"><path d="M228.5,6 L402.5,6 A3.75,3.75 0 0 1 405,8.5 L412,29.6094 L412.5,29.6094 A2.5,2.5 0 0 1 415,32.1094 L415,103.5 A2.5,2.5 0 0 1 412.5,106 L228.5,106 A2.5,2.5 0 0 1 226,103.5 L226,8.5 A2.5,2.5 0 0 1 228.5,6 " fill="none" style="stroke:#000000;stroke-width:1.5;"/><line style="stroke:#000000;stroke-width:1.5;" x1="226" x2="412" y1="29.6094" y2="29.6094"/><text fill="#000000" font-family="sans-serif" font-size="14" font-weight="bold" lengthAdjust="spacing" textLength="173" x="230" y="22.5332">androidx.appcompat.app</text></g><!--MD5=[2211f6aefc6d3e8465659e1ee08dff72]
cluster androidx.work--><g id="cluster_androidx.work"><path d="M518.5,6 L619.5,6 A3.75,3.75 0 0 1 622,8.5 L629,29.6094 L629.5,29.6094 A2.5,2.5 0 0 1 632,32.1094 L632,103.5 A2.5,2.5 0 0 1 629.5,106 L518.5,106 A2.5,2.5 0 0 1 516,103.5 L516,8.5 A2.5,2.5 0 0 1 518.5,6 " fill="none" style="stroke:#000000;stroke-width:1.5;"/><line style="stroke:#000000;stroke-width:1.5;" x1="516" x2="629" y1="29.6094" y2="29.6094"/><text fill="#000000" font-family="sans-serif" font-size="14" font-weight="bold" lengthAdjust="spacing" textLength="100" x="520" y="22.5332">androidx.work</text></g><!--MD5=[f7bec0582cee60c1f89fcb2b37c068e3]
class com.example.practica1.MainActivity--><g id="elem_com.example.practica1.MainActivity"><rect codeLine="1" fill="#F1F1F1" height="312.1406" id="com.example.practica1.MainActivity" rx="2.5" ry="2.5" style="stroke:#181818;stroke-width:0.5;" width="266" x="109" y="166"/><ellipse cx="200.75" cy="182" fill="#ADD1B2" rx="11" ry="11" style="stroke:#181818;stroke-width:1.0;"/><path d="M202.75,178.5 Q202.9531,178 203.1875,177.75 Q203.4219,177.5 203.6875,177.5 Q204.1563,177.5 204.4531,177.7813 Q204.75,178.0625 204.75,178.7188 L204.75,180.2813 Q204.75,180.9375 204.4688,181.2188 Q204.1875,181.5 203.75,181.5 Q203.3594,181.5 203.1094,181.3281 Q202.8594,181.1563 202.75,180.7031 Q202.7031,180.3906 202.5313,180.2188 Q202.2188,179.8906 201.6563,179.7031 Q201.0938,179.5 200.5313,179.5 Q199.8281,179.5 199.2344,179.7813 Q198.6563,180.0625 198.2031,180.6875 Q197.75,181.3125 197.75,182.1719 L197.75,183.0938 Q197.75,184.125 198.5938,184.8125 Q199.4375,185.5 200.9375,185.5 Q201.8281,185.5 202.4531,185.2969 Q202.8125,185.1875 203.2188,184.8281 Q203.4844,184.625 203.625,184.5625 Q203.7656,184.5 203.9375,184.5 Q204.2656,184.5 204.5,184.7656 Q204.75,185.0156 204.75,185.375 Q204.75,185.7188 204.4063,186.125 Q203.9063,186.7188 203.1094,187.0469 Q202.0625,187.5 200.7813,187.5 Q199.2813,187.5 198.0781,186.9063 Q197.1094,186.4375 196.4219,185.4219 Q195.75,184.4063 195.75,183.2031 L195.75,182.1094 Q195.75,180.8594 196.3438,179.7656 Q196.9531,178.6719 198,178.0938 Q199.0625,177.5 200.25,177.5 Q200.9688,177.5 201.5938,177.75 Q202.2188,178 202.75,178.5 Z " fill="#000000"/><text fill="#000000" font-family="sans-serif" font-size="14" lengthAdjust="spacing" textLength="74" x="221.25" y="187.7285">MainActivity</text><line style="stroke:#181818;stroke-width:0.5;" x1="110" x2="374" y1="198" y2="198"/><rect fill="none" height="6" style="stroke:#C82930;stroke-width:1.0;" width="6" x="117" y="209.3047"/><text fill="#000000" font-family="sans-serif" font-size="14" lengthAdjust="spacing" textLength="149" x="129" y="216.5332">AEngine androidEngine</text><rect fill="none" height="6" style="stroke:#C82930;stroke-width:1.0;" width="6" x="117" y="226.9141"/><text fill="#000000" font-family="sans-serif" font-size="14" lengthAdjust="spacing" textLength="185" x="129" y="234.1426">AssetManager assetManager</text><rect fill="none" height="6" style="stroke:#C82930;stroke-width:1.0;" width="6" x="117" y="244.5234"/><text fill="#000000" font-family="sans-serif" font-size="14" lengthAdjust="spacing" textLength="107" x="129" y="251.752">AdView mAdView</text><rect fill="none" height="6" style="stroke:#C82930;stroke-width:1.0;" width="6" x="117" y="262.1328"/><text fill="#000000" font-family="sans-serif" font-size="14" lengthAdjust="spacing" textLength="204" x="129" y="269.3613">SensorManager sensorManager</text><rect fill="none" height="6" style="stroke:#C82930;stroke-width:1.0;" width="6" x="117" y="279.7422"/><text fill="#000000" font-family="sans-serif" font-size="14" lengthAdjust="spacing" textLength="141" x="129" y="286.9707">Sensor ambienceLight</text><rect fill="none" height="6" style="stroke:#C82930;stroke-width:1.0;" width="6" x="117" y="297.3516"/><text fill="#000000" font-family="sans-serif" font-size="14" lengthAdjust="spacing" textLength="134" x="129" y="304.5801">String sharedPrefFile</text><line style="stroke:#181818;stroke-width:0.5;" x1="110" x2="374" y1="311.6563" y2="311.6563"/><polygon fill="#FFFF44" points="120,320.9609,124,324.9609,120,328.9609,116,324.9609" style="stroke:#B38D22;stroke-width:1.0;"/><text fill="#000000" font-family="sans-serif" font-size="14" lengthAdjust="spacing" textLength="143" x="129" y="330.1895">void onCreate(Bundle)</text><rect fill="#F24D5C" height="6" style="stroke:#C82930;stroke-width:1.0;" width="6" x="117" y="340.5703"/><text fill="#000000" font-family="sans-serif" font-size="14" lengthAdjust="spacing" textLength="127" x="129" y="347.7988">void cargarBanner()</text><polygon fill="#FFFF44" points="120,356.1797,124,360.1797,120,364.1797,116,360.1797" style="stroke:#B38D22;stroke-width:1.0;"/><text fill="#000000" font-family="sans-serif" font-size="14" lengthAdjust="spacing" textLength="108" x="129" y="365.4082">void onResume()</text><polygon fill="#FFFF44" points="120,373.7891,124,377.7891,120,381.7891,116,377.7891" style="stroke:#B38D22;stroke-width:1.0;"/><text fill="#000000" font-family="sans-serif" font-size="14" lengthAdjust="spacing" textLength="105" x="129" y="383.0176">void onDestroy()</text><polygon fill="#FFFF44" points="120,391.3984,124,395.3984,120,399.3984,116,395.3984" style="stroke:#B38D22;stroke-width:1.0;"/><text fill="#000000" font-family="sans-serif" font-size="14" lengthAdjust="spacing" textLength="96" x="129" y="400.627">void onPause()</text><ellipse cx="120" cy="414.0078" fill="#84BE84" rx="3" ry="3" style="stroke:#038048;stroke-width:1.0;"/><text fill="#000000" font-family="sans-serif" font-size="14" lengthAdjust="spacing" textLength="218" x="129" y="418.2363">void onSaveInstanceState(Bundle)</text><ellipse cx="120" cy="431.6172" fill="#84BE84" rx="3" ry="3" style="stroke:#038048;stroke-width:1.0;"/><text fill="#000000" font-family="sans-serif" font-size="14" lengthAdjust="spacing" textLength="236" x="129" y="435.8457">void onRestoreInstanceState(Bundle)</text><ellipse cx="120" cy="449.2266" fill="#84BE84" rx="3" ry="3" style="stroke:#038048;stroke-width:1.0;"/><text fill="#000000" font-family="sans-serif" font-size="14" lengthAdjust="spacing" textLength="240" x="129" y="453.4551">void onSensorChanged(SensorEvent)</text><ellipse cx="120" cy="466.8359" fill="#84BE84" rx="3" ry="3" style="stroke:#038048;stroke-width:1.0;"/><text fill="#000000" font-family="sans-serif" font-size="14" lengthAdjust="spacing" textLength="236" x="129" y="471.0645">void onAccuracyChanged(Sensor,int)</text></g><!--MD5=[a7face46432bfcfc42a36e9a580ce288]
class com.example.practica1.BuildConfig--><g id="elem_com.example.practica1.BuildConfig"><rect codeLine="18" fill="#F1F1F1" height="136.0469" id="com.example.practica1.BuildConfig" rx="2.5" ry="2.5" style="stroke:#181818;stroke-width:0.5;" width="177" x="773.5" y="254"/><ellipse cx="821.75" cy="270" fill="#ADD1B2" rx="11" ry="11" style="stroke:#181818;stroke-width:1.0;"/><path d="M823.75,266.5 Q823.9531,266 824.1875,265.75 Q824.4219,265.5 824.6875,265.5 Q825.1563,265.5 825.4531,265.7813 Q825.75,266.0625 825.75,266.7188 L825.75,268.2813 Q825.75,268.9375 825.4688,269.2188 Q825.1875,269.5 824.75,269.5 Q824.3594,269.5 824.1094,269.3281 Q823.8594,269.1563 823.75,268.7031 Q823.7031,268.3906 823.5313,268.2188 Q823.2188,267.8906 822.6563,267.7031 Q822.0938,267.5 821.5313,267.5 Q820.8281,267.5 820.2344,267.7813 Q819.6563,268.0625 819.2031,268.6875 Q818.75,269.3125 818.75,270.1719 L818.75,271.0938 Q818.75,272.125 819.5938,272.8125 Q820.4375,273.5 821.9375,273.5 Q822.8281,273.5 823.4531,273.2969 Q823.8125,273.1875 824.2188,272.8281 Q824.4844,272.625 824.625,272.5625 Q824.7656,272.5 824.9375,272.5 Q825.2656,272.5 825.5,272.7656 Q825.75,273.0156 825.75,273.375 Q825.75,273.7188 825.4063,274.125 Q824.9063,274.7188 824.1094,275.0469 Q823.0625,275.5 821.7813,275.5 Q820.2813,275.5 819.0781,274.9063 Q818.1094,274.4375 817.4219,273.4219 Q816.75,272.4063 816.75,271.2031 L816.75,270.1094 Q816.75,268.8594 817.3438,267.7656 Q817.9531,266.6719 819,266.0938 Q820.0625,265.5 821.25,265.5 Q821.9688,265.5 822.5938,265.75 Q823.2188,266 823.75,266.5 Z " fill="#000000"/><text fill="#000000" font-family="sans-serif" font-size="14" lengthAdjust="spacing" textLength="72" x="842.25" y="275.7285">BuildConfig</text><line style="stroke:#181818;stroke-width:0.5;" x1="774.5" x2="949.5" y1="286" y2="286"/><ellipse cx="784.5" cy="300.3047" fill="none" rx="3" ry="3" style="stroke:#038048;stroke-width:1.0;"/><text fill="#000000" font-family="sans-serif" font-size="14" lengthAdjust="spacing" text-decoration="underline" textLength="103" x="793.5" y="304.5332">boolean DEBUG</text><ellipse cx="784.5" cy="317.9141" fill="none" rx="3" ry="3" style="stroke:#038048;stroke-width:1.0;"/><text fill="#000000" font-family="sans-serif" font-size="14" lengthAdjust="spacing" text-decoration="underline" textLength="151" x="793.5" y="322.1426">String APPLICATION_ID</text><ellipse cx="784.5" cy="335.5234" fill="none" rx="3" ry="3" style="stroke:#038048;stroke-width:1.0;"/><text fill="#000000" font-family="sans-serif" font-size="14" lengthAdjust="spacing" text-decoration="underline" textLength="124" x="793.5" y="339.752">String BUILD_TYPE</text><ellipse cx="784.5" cy="353.1328" fill="none" rx="3" ry="3" style="stroke:#038048;stroke-width:1.0;"/><text fill="#000000" font-family="sans-serif" font-size="14" lengthAdjust="spacing" text-decoration="underline" textLength="127" x="793.5" y="357.3613">int VERSION_CODE</text><ellipse cx="784.5" cy="370.7422" fill="none" rx="3" ry="3" style="stroke:#038048;stroke-width:1.0;"/><text fill="#000000" font-family="sans-serif" font-size="14" lengthAdjust="spacing" text-decoration="underline" textLength="147" x="793.5" y="374.9707">String VERSION_NAME</text><line style="stroke:#181818;stroke-width:0.5;" x1="774.5" x2="949.5" y1="382.0469" y2="382.0469"/></g><!--MD5=[0ba56283a30df572535221c450783d16]
class com.example.practica1.ExampleUnitTest--><g id="elem_com.example.practica1.ExampleUnitTest"><rect codeLine="25" fill="#F1F1F1" height="65.6094" id="com.example.practica1.ExampleUnitTest" rx="2.5" ry="2.5" style="stroke:#181818;stroke-width:0.5;" width="181" x="985.5" y="289"/><ellipse cx="1020.3" cy="305" fill="#ADD1B2" rx="11" ry="11" style="stroke:#181818;stroke-width:1.0;"/><path d="M1022.3,301.5 Q1022.5031,301 1022.7375,300.75 Q1022.9719,300.5 1023.2375,300.5 Q1023.7063,300.5 1024.0031,300.7813 Q1024.3,301.0625 1024.3,301.7188 L1024.3,303.2813 Q1024.3,303.9375 1024.0188,304.2188 Q1023.7375,304.5 1023.3,304.5 Q1022.9094,304.5 1022.6594,304.3281 Q1022.4094,304.1563 1022.3,303.7031 Q1022.2531,303.3906 1022.0813,303.2188 Q1021.7688,302.8906 1021.2063,302.7031 Q1020.6438,302.5 1020.0813,302.5 Q1019.3781,302.5 1018.7844,302.7813 Q1018.2063,303.0625 1017.7531,303.6875 Q1017.3,304.3125 1017.3,305.1719 L1017.3,306.0938 Q1017.3,307.125 1018.1438,307.8125 Q1018.9875,308.5 1020.4875,308.5 Q1021.3781,308.5 1022.0031,308.2969 Q1022.3625,308.1875 1022.7688,307.8281 Q1023.0344,307.625 1023.175,307.5625 Q1023.3156,307.5 1023.4875,307.5 Q1023.8156,307.5 1024.05,307.7656 Q1024.3,308.0156 1024.3,308.375 Q1024.3,308.7188 1023.9563,309.125 Q1023.4563,309.7188 1022.6594,310.0469 Q1021.6125,310.5 1020.3313,310.5 Q1018.8313,310.5 1017.6281,309.9063 Q1016.6594,309.4375 1015.9719,308.4219 Q1015.3,307.4063 1015.3,306.2031 L1015.3,305.1094 Q1015.3,303.8594 1015.8938,302.7656 Q1016.5031,301.6719 1017.55,301.0938 Q1018.6125,300.5 1019.8,300.5 Q1020.5188,300.5 1021.1438,300.75 Q1021.7688,301 1022.3,301.5 Z " fill="#000000"/><text fill="#000000" font-family="sans-serif" font-size="14" lengthAdjust="spacing" textLength="105" x="1038.7" y="310.7285">ExampleUnitTest</text><line style="stroke:#181818;stroke-width:0.5;" x1="986.5" x2="1165.5" y1="321" y2="321"/><line style="stroke:#181818;stroke-width:0.5;" x1="986.5" x2="1165.5" y1="329" y2="329"/><ellipse cx="996.5" cy="343.3047" fill="#84BE84" rx="3" ry="3" style="stroke:#038048;stroke-width:1.0;"/><text fill="#000000" font-family="sans-serif" font-size="14" lengthAdjust="spacing" textLength="155" x="1005.5" y="347.5332">void addition_isCorrect()</text></g><!--MD5=[4a018c431ee5f4d254b0f36eb95a052c]
class com.example.practica1.ExampleInstrumentedTest--><g id="elem_com.example.practica1.ExampleInstrumentedTest"><rect codeLine="28" fill="#F1F1F1" height="65.6094" id="com.example.practica1.ExampleInstrumentedTest" rx="2.5" ry="2.5" style="stroke:#181818;stroke-width:0.5;" width="195" x="764.5" y="538"/><ellipse cx="779.5" cy="554" fill="#ADD1B2" rx="11" ry="11" style="stroke:#181818;stroke-width:1.0;"/><path d="M781.5,550.5 Q781.7031,550 781.9375,549.75 Q782.1719,549.5 782.4375,549.5 Q782.9063,549.5 783.2031,549.7813 Q783.5,550.0625 783.5,550.7188 L783.5,552.2813 Q783.5,552.9375 783.2188,553.2188 Q782.9375,553.5 782.5,553.5 Q782.1094,553.5 781.8594,553.3281 Q781.6094,553.1563 781.5,552.7031 Q781.4531,552.3906 781.2813,552.2188 Q780.9688,551.8906 780.4063,551.7031 Q779.8438,551.5 779.2813,551.5 Q778.5781,551.5 777.9844,551.7813 Q777.4063,552.0625 776.9531,552.6875 Q776.5,553.3125 776.5,554.1719 L776.5,555.0938 Q776.5,556.125 777.3438,556.8125 Q778.1875,557.5 779.6875,557.5 Q780.5781,557.5 781.2031,557.2969 Q781.5625,557.1875 781.9688,556.8281 Q782.2344,556.625 782.375,556.5625 Q782.5156,556.5 782.6875,556.5 Q783.0156,556.5 783.25,556.7656 Q783.5,557.0156 783.5,557.375 Q783.5,557.7188 783.1563,558.125 Q782.6563,558.7188 781.8594,559.0469 Q780.8125,559.5 779.5313,559.5 Q778.0313,559.5 776.8281,558.9063 Q775.8594,558.4375 775.1719,557.4219 Q774.5,556.4063 774.5,555.2031 L774.5,554.1094 Q774.5,552.8594 775.0938,551.7656 Q775.7031,550.6719 776.75,550.0938 Q777.8125,549.5 779,549.5 Q779.7188,549.5 780.3438,549.75 Q780.9688,550 781.5,550.5 Z " fill="#000000"/><text fill="#000000" font-family="sans-serif" font-size="14" lengthAdjust="spacing" textLength="163" x="793.5" y="559.7285">ExampleInstrumentedTest</text><line style="stroke:#181818;stroke-width:0.5;" x1="765.5" x2="958.5" y1="570" y2="570"/><line style="stroke:#181818;stroke-width:0.5;" x1="765.5" x2="958.5" y1="578" y2="578"/><ellipse cx="775.5" cy="592.3047" fill="#84BE84" rx="3" ry="3" style="stroke:#038048;stroke-width:1.0;"/><text fill="#000000" font-family="sans-serif" font-size="14" lengthAdjust="spacing" textLength="136" x="784.5" y="596.5332">void useAppContext()</text></g><!--MD5=[198296a1b962ce4121e1ac3f2cf47466]
class com.example.practica1.NotificationWork--><g id="elem_com.example.practica1.NotificationWork"><rect codeLine="31" fill="#F1F1F1" height="136.0469" id="com.example.practica1.NotificationWork" rx="2.5" ry="2.5" style="stroke:#181818;stroke-width:0.5;" width="328" x="410" y="254"/><ellipse cx="518.75" cy="270" fill="#ADD1B2" rx="11" ry="11" style="stroke:#181818;stroke-width:1.0;"/><path d="M520.75,266.5 Q520.9531,266 521.1875,265.75 Q521.4219,265.5 521.6875,265.5 Q522.1563,265.5 522.4531,265.7813 Q522.75,266.0625 522.75,266.7188 L522.75,268.2813 Q522.75,268.9375 522.4688,269.2188 Q522.1875,269.5 521.75,269.5 Q521.3594,269.5 521.1094,269.3281 Q520.8594,269.1563 520.75,268.7031 Q520.7031,268.3906 520.5313,268.2188 Q520.2188,267.8906 519.6563,267.7031 Q519.0938,267.5 518.5313,267.5 Q517.8281,267.5 517.2344,267.7813 Q516.6563,268.0625 516.2031,268.6875 Q515.75,269.3125 515.75,270.1719 L515.75,271.0938 Q515.75,272.125 516.5938,272.8125 Q517.4375,273.5 518.9375,273.5 Q519.8281,273.5 520.4531,273.2969 Q520.8125,273.1875 521.2188,272.8281 Q521.4844,272.625 521.625,272.5625 Q521.7656,272.5 521.9375,272.5 Q522.2656,272.5 522.5,272.7656 Q522.75,273.0156 522.75,273.375 Q522.75,273.7188 522.4063,274.125 Q521.9063,274.7188 521.1094,275.0469 Q520.0625,275.5 518.7813,275.5 Q517.2813,275.5 516.0781,274.9063 Q515.1094,274.4375 514.4219,273.4219 Q513.75,272.4063 513.75,271.2031 L513.75,270.1094 Q513.75,268.8594 514.3438,267.7656 Q514.9531,266.6719 516,266.0938 Q517.0625,265.5 518.25,265.5 Q518.9688,265.5 519.5938,265.75 Q520.2188,266 520.75,266.5 Z " fill="#000000"/><text fill="#000000" font-family="sans-serif" font-size="14" lengthAdjust="spacing" textLength="102" x="539.25" y="275.7285">NotificationWork</text><line style="stroke:#181818;stroke-width:0.5;" x1="411" x2="737" y1="286" y2="286"/><rect fill="none" height="6" style="stroke:#C82930;stroke-width:1.0;" width="6" x="418" y="297.3047"/><text fill="#000000" font-family="sans-serif" font-size="14" lengthAdjust="spacing" text-decoration="underline" textLength="70" x="430" y="304.5332">String TAG</text><rect fill="none" height="6" style="stroke:#C82930;stroke-width:1.0;" width="6" x="418" y="314.9141"/><text fill="#000000" font-family="sans-serif" font-size="14" lengthAdjust="spacing" textLength="213" x="430" y="322.1426">NotificationCompat.Builder builder</text><rect fill="none" height="6" style="stroke:#C82930;stroke-width:1.0;" width="6" x="418" y="332.5234"/><text fill="#000000" font-family="sans-serif" font-size="14" lengthAdjust="spacing" textLength="302" x="430" y="339.752">NotificationManagerCompat notificationManager</text><line style="stroke:#181818;stroke-width:0.5;" x1="411" x2="737" y1="346.8281" y2="346.8281"/><ellipse cx="421" cy="361.1328" fill="#84BE84" rx="3" ry="3" style="stroke:#038048;stroke-width:1.0;"/><text fill="#000000" font-family="sans-serif" font-size="14" lengthAdjust="spacing" textLength="103" x="430" y="365.3613">Result doWork()</text><rect fill="#F24D5C" height="6" style="stroke:#C82930;stroke-width:1.0;" width="6" x="418" y="375.7422"/><text fill="#000000" font-family="sans-serif" font-size="14" lengthAdjust="spacing" textLength="202" x="430" y="382.9707">void createNotificationChannel()</text></g><!--MD5=[71154299c6cc5995ddd01e9a343e5765]
class android.hardware.SensorEventListener--><g id="elem_android.hardware.SensorEventListener"><rect fill="#F1F1F1" height="48" id="android.hardware.SensorEventListener" rx="2.5" ry="2.5" style="stroke:#181818;stroke-width:0.5;" width="164" x="22" y="42"/><ellipse cx="37" cy="58" fill="#ADD1B2" rx="11" ry="11" style="stroke:#181818;stroke-width:1.0;"/><path d="M39,54.5 Q39.2031,54 39.4375,53.75 Q39.6719,53.5 39.9375,53.5 Q40.4063,53.5 40.7031,53.7813 Q41,54.0625 41,54.7188 L41,56.2813 Q41,56.9375 40.7188,57.2188 Q40.4375,57.5 40,57.5 Q39.6094,57.5 39.3594,57.3281 Q39.1094,57.1563 39,56.7031 Q38.9531,56.3906 38.7813,56.2188 Q38.4688,55.8906 37.9063,55.7031 Q37.3438,55.5 36.7813,55.5 Q36.0781,55.5 35.4844,55.7813 Q34.9063,56.0625 34.4531,56.6875 Q34,57.3125 34,58.1719 L34,59.0938 Q34,60.125 34.8438,60.8125 Q35.6875,61.5 37.1875,61.5 Q38.0781,61.5 38.7031,61.2969 Q39.0625,61.1875 39.4688,60.8281 Q39.7344,60.625 39.875,60.5625 Q40.0156,60.5 40.1875,60.5 Q40.5156,60.5 40.75,60.7656 Q41,61.0156 41,61.375 Q41,61.7188 40.6563,62.125 Q40.1563,62.7188 39.3594,63.0469 Q38.3125,63.5 37.0313,63.5 Q35.5313,63.5 34.3281,62.9063 Q33.3594,62.4375 32.6719,61.4219 Q32,60.4063 32,59.2031 L32,58.1094 Q32,56.8594 32.5938,55.7656 Q33.2031,54.6719 34.25,54.0938 Q35.3125,53.5 36.5,53.5 Q37.2188,53.5 37.8438,53.75 Q38.4688,54 39,54.5 Z " fill="#000000"/><text fill="#000000" font-family="sans-serif" font-size="14" lengthAdjust="spacing" textLength="132" x="51" y="63.7285">SensorEventListener</text><line style="stroke:#181818;stroke-width:0.5;" x1="23" x2="185" y1="74" y2="74"/><line style="stroke:#181818;stroke-width:0.5;" x1="23" x2="185" y1="82" y2="82"/></g><!--MD5=[6971ca23cf0557f0436b13ef124bfeb7]
class androidx.appcompat.app.AppCompatActivity--><g id="elem_androidx.appcompat.app.AppCompatActivity"><rect fill="#F1F1F1" height="48" id="androidx.appcompat.app.AppCompatActivity" rx="2.5" ry="2.5" style="stroke:#181818;stroke-width:0.5;" width="150" x="242" y="42"/><ellipse cx="257" cy="58" fill="#ADD1B2" rx="11" ry="11" style="stroke:#181818;stroke-width:1.0;"/><path d="M259,54.5 Q259.2031,54 259.4375,53.75 Q259.6719,53.5 259.9375,53.5 Q260.4063,53.5 260.7031,53.7813 Q261,54.0625 261,54.7188 L261,56.2813 Q261,56.9375 260.7188,57.2188 Q260.4375,57.5 260,57.5 Q259.6094,57.5 259.3594,57.3281 Q259.1094,57.1563 259,56.7031 Q258.9531,56.3906 258.7813,56.2188 Q258.4688,55.8906 257.9063,55.7031 Q257.3438,55.5 256.7813,55.5 Q256.0781,55.5 255.4844,55.7813 Q254.9063,56.0625 254.4531,56.6875 Q254,57.3125 254,58.1719 L254,59.0938 Q254,60.125 254.8438,60.8125 Q255.6875,61.5 257.1875,61.5 Q258.0781,61.5 258.7031,61.2969 Q259.0625,61.1875 259.4688,60.8281 Q259.7344,60.625 259.875,60.5625 Q260.0156,60.5 260.1875,60.5 Q260.5156,60.5 260.75,60.7656 Q261,61.0156 261,61.375 Q261,61.7188 260.6563,62.125 Q260.1563,62.7188 259.3594,63.0469 Q258.3125,63.5 257.0313,63.5 Q255.5313,63.5 254.3281,62.9063 Q253.3594,62.4375 252.6719,61.4219 Q252,60.4063 252,59.2031 L252,58.1094 Q252,56.8594 252.5938,55.7656 Q253.2031,54.6719 254.25,54.0938 Q255.3125,53.5 256.5,53.5 Q257.2188,53.5 257.8438,53.75 Q258.4688,54 259,54.5 Z " fill="#000000"/><text fill="#000000" font-family="sans-serif" font-size="14" lengthAdjust="spacing" textLength="118" x="271" y="63.7285">AppCompatActivity</text><line style="stroke:#181818;stroke-width:0.5;" x1="243" x2="391" y1="74" y2="74"/><line style="stroke:#181818;stroke-width:0.5;" x1="243" x2="391" y1="82" y2="82"/></g><!--MD5=[af7f8c6e0a89c182d99c34deb7861100]
class androidx.work.Worker--><g id="elem_androidx.work.Worker"><rect fill="#F1F1F1" height="48" id="androidx.work.Worker" rx="2.5" ry="2.5" style="stroke:#181818;stroke-width:0.5;" width="78" x="535" y="42"/><ellipse cx="550" cy="58" fill="#ADD1B2" rx="11" ry="11" style="stroke:#181818;stroke-width:1.0;"/><path d="M552,54.5 Q552.2031,54 552.4375,53.75 Q552.6719,53.5 552.9375,53.5 Q553.4063,53.5 553.7031,53.7813 Q554,54.0625 554,54.7188 L554,56.2813 Q554,56.9375 553.7188,57.2188 Q553.4375,57.5 553,57.5 Q552.6094,57.5 552.3594,57.3281 Q552.1094,57.1563 552,56.7031 Q551.9531,56.3906 551.7813,56.2188 Q551.4688,55.8906 550.9063,55.7031 Q550.3438,55.5 549.7813,55.5 Q549.0781,55.5 548.4844,55.7813 Q547.9063,56.0625 547.4531,56.6875 Q547,57.3125 547,58.1719 L547,59.0938 Q547,60.125 547.8438,60.8125 Q548.6875,61.5 550.1875,61.5 Q551.0781,61.5 551.7031,61.2969 Q552.0625,61.1875 552.4688,60.8281 Q552.7344,60.625 552.875,60.5625 Q553.0156,60.5 553.1875,60.5 Q553.5156,60.5 553.75,60.7656 Q554,61.0156 554,61.375 Q554,61.7188 553.6563,62.125 Q553.1563,62.7188 552.3594,63.0469 Q551.3125,63.5 550.0313,63.5 Q548.5313,63.5 547.3281,62.9063 Q546.3594,62.4375 545.6719,61.4219 Q545,60.4063 545,59.2031 L545,58.1094 Q545,56.8594 545.5938,55.7656 Q546.2031,54.6719 547.25,54.0938 Q548.3125,53.5 549.5,53.5 Q550.2188,53.5 550.8438,53.75 Q551.4688,54 552,54.5 Z " fill="#000000"/><text fill="#000000" font-family="sans-serif" font-size="14" lengthAdjust="spacing" textLength="46" x="564" y="63.7285">Worker</text><line style="stroke:#181818;stroke-width:0.5;" x1="536" x2="612" y1="74" y2="74"/><line style="stroke:#181818;stroke-width:0.5;" x1="536" x2="612" y1="82" y2="82"/></g><!--MD5=[71468d2333426c945927b4f52eb2a324]
reverse link android.hardware.SensorEventListener to com.example.practica1.MainActivity--><g id="link_android.hardware.SensorEventListener_com.example.practica1.MainActivity"><path codeLine="40" d="M126.4,108.24 C135.33,124.67 146.22,144.71 157.7,165.84 " fill="none" id="android.hardware.SensorEventListener-backto-com.example.practica1.MainActivity" style="stroke:#181818;stroke-width:1.0;stroke-dasharray:7.0,7.0;"/><polygon fill="none" points="120.13,111.36,116.74,90.44,132.43,104.67,120.13,111.36" style="stroke:#181818;stroke-width:1.0;"/></g><!--MD5=[67bacc5fae962ff428502c19bb8656a4]
reverse link androidx.appcompat.app.AppCompatActivity to com.example.practica1.MainActivity--><g id="link_androidx.appcompat.app.AppCompatActivity_com.example.practica1.MainActivity"><path codeLine="41" d="M304.34,109.86 C299.58,125.99 293.85,145.4 287.82,165.84 " fill="none" id="androidx.appcompat.app.AppCompatActivity-backto-com.example.practica1.MainActivity" style="stroke:#181818;stroke-width:1.0;"/><polygon fill="none" points="297.7,107.64,310.08,90.44,311.13,111.6,297.7,107.64" style="stroke:#181818;stroke-width:1.0;"/></g><!--MD5=[f42811c5a66262520b1c2e03a7ff64b8]
reverse link androidx.work.Worker to com.example.practica1.NotificationWork--><g id="link_androidx.work.Worker_com.example.practica1.NotificationWork"><path codeLine="42" d="M574,110.65 C574,150.01 574,208.51 574,253.83 " fill="none" id="androidx.work.Worker-backto-com.example.practica1.NotificationWork" style="stroke:#181818;stroke-width:1.0;"/><polygon fill="none" points="567,110.44,574,90.44,581,110.44,567,110.44" style="stroke:#181818;stroke-width:1.0;"/></g><!--MD5=[19db8ecbf74978b931cbcf5fb9125dd0]
@startuml
class com.example.practica1.MainActivity {
- AEngine androidEngine
- AssetManager assetManager
- AdView mAdView
- SensorManager sensorManager
- Sensor ambienceLight
- String sharedPrefFile
# void onCreate(Bundle)
- void cargarBanner()
# void onResume()
# void onDestroy()
# void onPause()
+ void onSaveInstanceState(Bundle)
+ void onRestoreInstanceState(Bundle)
+ void onSensorChanged(SensorEvent)
+ void onAccuracyChanged(Sensor,int)
}
class com.example.practica1.BuildConfig {
+ {static} boolean DEBUG
+ {static} String APPLICATION_ID
+ {static} String BUILD_TYPE
+ {static} int VERSION_CODE
+ {static} String VERSION_NAME
}
class com.example.practica1.ExampleUnitTest {
+ void addition_isCorrect()
}
class com.example.practica1.ExampleInstrumentedTest {
+ void useAppContext()
}
class com.example.practica1.NotificationWork {
- {static} String TAG
- NotificationCompat.Builder builder
- NotificationManagerCompat notificationManager
+ Result doWork()
- void createNotificationChannel()
}


android.hardware.SensorEventListener <|.. com.example.practica1.MainActivity
androidx.appcompat.app.AppCompatActivity <|- - com.example.practica1.MainActivity
androidx.work.Worker <|- - com.example.practica1.NotificationWork
@enduml

PlantUML version 1.2022.12(Sun Oct 23 20:12:26 CEST 2022)
(GPL source distribution)
Java Runtime: OpenJDK Runtime Environment
JVM: OpenJDK 64-Bit Server VM
Default Encoding: Cp1252
Language: es
Country: ES
--></g></svg>